<svg width="290" height="131" viewBox="0 0 290 131" fill="none" xmlns="http://www.w3.org/2000/svg">
    <rect x="1" y="1" width="288" height="129" rx="1.5" stroke="black" stroke-width="2" stroke-dasharray="5 5"/>
    <path fill-rule="evenodd" clip-rule="evenodd" d="M159 65.5C159 73.5081 152.508 80 144.5 80C136.492 80 130 73.5081 130 65.5C130 57.4919 136.492 51 144.5 51C152.508 51 159 57.4919 159 65.5ZM161 65.5C161 74.6127 153.613 82 144.5 82C135.387 82 128 74.6127 128 65.5C128 56.3873 135.387 49 144.5 49C153.613 49 161 56.3873 161 65.5ZM146 59V65H152V67H146V73H144V67H138V65H144V59H146Z" fill="black"/>
</svg>
