<svg width="276" height="125" viewBox="0 0 276 125" fill="none" xmlns="http://www.w3.org/2000/svg">
<rect x="1" y="1" width="273.638" height="123" rx="1.5" stroke="#BCBCBC" stroke-width="2" stroke-dasharray="5 5"/>
<path fill-rule="evenodd" clip-rule="evenodd" d="M151.366 61.7443C151.366 69.3424 145.232 75.4886 137.683 75.4886C130.133 75.4886 124 69.3424 124 61.7443C124 54.1461 130.133 48 137.683 48C145.232 48 151.366 54.1461 151.366 61.7443ZM153.366 61.7443C153.366 70.4396 146.344 77.4886 137.683 77.4886C129.021 77.4886 122 70.4396 122 61.7443C122 53.049 129.021 46 137.683 46C146.344 46 153.366 53.049 153.366 61.7443ZM139.158 55.542V61.2214H144.812V63.2214H139.158V68.9008H137.158V63.2214H131.505V61.2214H137.158V55.542H139.158Z" fill="#BCBCBC"/>
</svg>
